<?xml version="1.0" standalone="no"?>
<!DOCTYPE svg PUBLIC "-//W3C//DTD SVG 20010904//EN"
 "http://www.w3.org/TR/2001/REC-SVG-20010904/DTD/svg10.dtd">
<svg version="1.0" xmlns="http://www.w3.org/2000/svg"
 width="226.000000pt" height="93.000000pt" viewBox="0 0 226.000000 93.000000"
 preserveAspectRatio="xMidYMid meet">

<g transform="translate(0.000000,93.000000) scale(0.100000,-0.100000)"
fill="#000000" stroke="none">
<path d="M323 809 c-17 -5 -42 -22 -55 -37 -26 -31 -227 -507 -235 -556 -6
-41 10 -81 42 -102 22 -14 32 -15 64 -6 37 11 191 133 191 152 0 4 -14 11 -31
15 l-31 7 24 25 23 26 -46 -27 c-54 -31 -84 -33 -99 -7 -15 29 -12 51 15 110
34 72 76 123 132 160 79 53 178 38 236 -35 11 -14 21 -23 23 -21 6 5 -86 219
-107 248 -19 27 -76 60 -101 58 -7 0 -27 -5 -45 -10z m107 -30 l35 -22 -25 -9
c-31 -12 -137 -5 -151 9 -8 8 -3 15 17 27 40 21 83 20 124 -5z m-1 -70 c27
-16 31 -23 20 -30 -21 -13 -75 -11 -114 5 -41 17 -43 23 -12 36 36 15 70 11
106 -11z"/>
<path d="M828 567 c-54 -97 -56 -102 -35 -105 14 -3 27 4 35 17 21 30 113 30
134 0 8 -13 21 -20 35 -17 21 3 19 8 -35 105 -31 57 -61 103 -67 103 -5 0 -36
-46 -67 -103z m92 -19 c0 -4 -11 -8 -25 -8 -28 0 -30 3 -14 32 11 21 12 21 25
3 8 -10 14 -22 14 -27z"/>
<path d="M1110 565 c0 -105 0 -105 25 -105 23 0 24 4 27 61 l3 60 70 -60 c39
-33 73 -60 78 -61 4 0 7 47 7 105 0 98 -1 105 -20 105 -18 0 -20 -7 -20 -60 0
-33 -3 -60 -7 -60 -5 1 -39 28 -77 60 -39 33 -73 60 -78 60 -4 0 -8 -47 -8
-105z"/>
<path d="M1450 565 l0 -105 80 0 c73 0 80 2 80 20 0 18 -7 20 -55 20 -48 0
-55 2 -55 20 0 17 7 20 40 20 33 0 40 3 40 20 0 17 -7 20 -40 20 -36 0 -40 3
-40 25 0 24 3 25 55 25 48 0 55 2 55 20 0 18 -7 20 -80 20 l-80 0 0 -105z"/>
<path d="M1754 619 l46 -52 -47 -51 c-46 -49 -47 -51 -24 -54 16 -3 35 8 63
35 l40 38 33 -38 c26 -30 39 -38 61 -35 l27 3 -47 52 -47 52 47 51 47 50 -29
0 c-18 0 -40 -11 -61 -32 l-33 -32 -33 32 c-21 20 -43 32 -61 32 l-28 0 46
-51z"/>
<path d="M2073 660 c-27 -11 -45 -43 -36 -66 3 -9 30 -27 60 -40 61 -27 71
-54 20 -54 -18 0 -38 5 -43 10 -7 7 -17 5 -30 -4 -18 -14 -17 -15 20 -31 64
-27 136 0 136 50 0 27 -11 36 -73 59 -57 21 -57 41 1 41 40 0 73 17 54 29 -18
11 -88 15 -109 6z"/>
<path d="M393 579 c22 -13 23 -78 2 -122 -14 -29 -14 -30 0 -13 8 11 15 24 15
28 0 5 12 -5 28 -22 l27 -30 65 23 c36 12 67 23 69 25 11 6 -78 86 -114 103
-43 20 -125 27 -92 8z"/>
<path d="M817 333 c19 -4 23 -12 26 -66 l3 -62 2 62 c2 55 4 62 25 66 12 2 0
4 -28 4 -27 0 -40 -2 -28 -4z"/>
<path d="M940 275 l0 -65 48 2 c43 1 44 2 10 5 -32 4 -38 8 -38 28 0 19 6 24
33 28 l32 4 -32 1 c-28 2 -33 6 -33 26 0 21 5 25 38 29 34 3 33 4 -10 5 l-48
2 0 -65z"/>
<path d="M1084 315 c-30 -47 3 -106 59 -104 l32 1 -31 7 c-46 12 -54 19 -54
55 0 40 13 53 60 59 34 4 33 4 -7 5 -35 2 -45 -2 -59 -23z"/>
<path d="M1230 275 c0 -37 4 -65 10 -65 6 0 10 24 11 53 l0 52 22 -29 c12 -16
32 -41 44 -55 l22 -26 -1 70 -1 70 -6 -55 -6 -55 -38 53 c-21 28 -43 52 -48
52 -5 0 -9 -29 -9 -65z"/>
<path d="M1415 324 c-26 -26 -16 -85 17 -103 61 -34 123 35 84 94 -20 30 -75
35 -101 9z m83 -6 c7 -7 12 -26 12 -43 0 -53 -43 -73 -82 -38 -35 32 -15 93
30 93 16 0 33 -5 40 -12z"/>
<path d="M1582 278 l-2 -68 43 2 42 1 -37 4 -37 4 -4 62 -3 62 -2 -67z"/>
<path d="M1707 322 c-23 -25 -21 -68 3 -92 58 -58 142 20 94 88 -19 28 -74 30
-97 4z m91 -35 c4 -44 -11 -67 -42 -67 -32 0 -46 19 -46 60 0 46 6 52 50 48
33 -3 35 -5 38 -41z"/>
<path d="M1886 324 c-39 -39 -4 -114 54 -114 27 0 30 3 29 33 -2 30 -2 30 -6
5 -5 -34 -40 -38 -66 -10 -36 39 -13 88 43 95 l35 4 -37 1 c-22 1 -43 -4 -52
-14z"/>
<path d="M2033 275 c0 -38 2 -53 4 -32 2 20 2 52 0 70 -2 17 -4 1 -4 -38z"/>
<path d="M2123 283 c-13 -32 -27 -61 -30 -65 -2 -5 1 -8 6 -8 6 0 11 4 11 9 0
5 10 30 21 57 20 44 23 46 35 29 18 -24 18 -35 -1 -35 -8 0 -15 -4 -15 -10 0
-5 9 -10 21 -10 12 0 23 -8 26 -20 3 -11 9 -20 14 -20 4 0 -4 29 -19 65 -15
36 -31 65 -35 65 -4 0 -20 -26 -34 -57z"/>
<path d="M421 304 c-19 -8 -55 -31 -80 -52 l-45 -37 39 -7 c22 -4 58 -7 79 -7
22 -1 83 -17 137 -37 114 -42 139 -38 139 21 0 97 -158 168 -269 119z"/>
</g>
</svg>
